<?xml version="1.0" encoding="utf-8"?>
<!-- Generator: Adobe Illustrator 16.0.0, SVG Export Plug-In . SVG Version: 6.00 Build 0)  -->
<!DOCTYPE svg PUBLIC "-//W3C//DTD SVG 1.1//EN" "http://www.w3.org/Graphics/SVG/1.1/DTD/svg11.dtd">
<svg version="1.1" id="Layer_1" xmlns="http://www.w3.org/2000/svg" xmlns:xlink="http://www.w3.org/1999/xlink" x="0px" y="0px"
	 width="2373.343px" height="512px" viewBox="0 0 2373.343 512" enable-background="new 0 0 2373.343 512" xml:space="preserve">
<g>
	<defs>
		<path id="SVGID_1_" d="M90.766,233.474C-1.4,277.818,0.001,397.896,0.001,397.896c58.01-98.968,223.921-116.324,302.464-150.465
			c78.47-34.139,61.193-133.105,61.193-133.105C323.224,184.135,182.935,189.087,90.766,233.474"/>
	</defs>
	<clipPath id="SVGID_2_">
		<use xlink:href="#SVGID_1_"  overflow="visible"/>
	</clipPath>
	
		<linearGradient id="SVGID_3_" gradientUnits="userSpaceOnUse" x1="904.6025" y1="693.2402" x2="910.8294" y2="693.2402" gradientTransform="matrix(51.9754 -51.9754 -51.9754 -51.9754 -10961.3369 83470.2344)">
		<stop  offset="0" style="stop-color:#F7941E"/>
		<stop  offset="0.4733" style="stop-color:#F36B2A"/>
		<stop  offset="1" style="stop-color:#EF4136"/>
	</linearGradient>
	<polygon clip-path="url(#SVGID_2_)" fill="url(#SVGID_3_)" points="-143.185,256.111 189.77,-76.844 522.721,256.111 
		189.77,589.068 	"/>
</g>
<g>
	<defs>
		<path id="SVGID_4_" d="M90.766,346.541C-1.4,390.892,0.001,510.979,0.001,510.979c58.01-98.97,223.921-116.336,302.464-150.471
			c78.47-34.135,61.193-133.093,61.193-133.093C323.224,297.224,182.935,302.154,90.766,346.541"/>
	</defs>
	<clipPath id="SVGID_5_">
		<use xlink:href="#SVGID_4_"  overflow="visible"/>
	</clipPath>
	
		<linearGradient id="SVGID_6_" gradientUnits="userSpaceOnUse" x1="903.6685" y1="692.3145" x2="909.8948" y2="692.3145" gradientTransform="matrix(51.9748 -51.9748 -51.9748 -51.9748 -10961.2939 83486.0781)">
		<stop  offset="0" style="stop-color:#F7941E"/>
		<stop  offset="0.4733" style="stop-color:#F36B2A"/>
		<stop  offset="1" style="stop-color:#EF4136"/>
	</linearGradient>
	<polygon clip-path="url(#SVGID_5_)" fill="url(#SVGID_6_)" points="-143.182,369.197 189.77,36.245 522.718,369.197 
		189.767,702.146 	"/>
</g>
<g>
	<defs>
		<path id="SVGID_7_" d="M90.766,119.127C-1.4,163.483,0.001,283.576,0.001,283.576c58.01-98.991,223.921-116.345,302.464-150.483
			C380.936,98.955,363.659,0,363.659,0C323.224,69.809,182.935,74.752,90.766,119.127"/>
	</defs>
	<clipPath id="SVGID_8_">
		<use xlink:href="#SVGID_7_"  overflow="visible"/>
	</clipPath>
	
		<linearGradient id="SVGID_9_" gradientUnits="userSpaceOnUse" x1="905.5166" y1="694.1582" x2="911.7435" y2="694.1582" gradientTransform="matrix(51.9751 -51.9751 -51.9751 -51.9751 -10961.333 83450.75)">
		<stop  offset="0" style="stop-color:#F7941E"/>
		<stop  offset="0.4733" style="stop-color:#F36B2A"/>
		<stop  offset="1" style="stop-color:#EF4136"/>
	</linearGradient>
	<polygon clip-path="url(#SVGID_8_)" fill="url(#SVGID_9_)" points="-143.188,141.788 189.77,-191.169 522.724,141.788 
		189.77,474.746 	"/>
</g>
<path fill="#FFFFFF" d="M690.433,506.881c-21.904,4.59-48.901,5.119-80.382,5.119c-24.145,0-47.275-3.302-69.392-9.911
	c-22.121-6.609-41.611-17.098-58.49-31.466c-16.854-14.361-30.198-32.925-39.997-55.732c-9.808-22.795-14.699-50.613-14.699-83.435
	c0-25.984,4.202-50.485,12.65-73.512c8.431-23.023,20.527-42.973,36.257-59.852c15.727-16.855,34.774-30.192,57.095-40.012
	c22.339-9.787,47.19-14.7,74.548-14.7c8.199,0,16.748,0.356,25.65,1.028c8.893,0.678,17.436,2.174,25.641,4.445V3.876
	c8.205-1.377,16.295-2.28,24.275-2.743c7.966-0.453,15.84-0.678,23.598-0.678c7.734,0,15.715,0.225,23.926,0.678
	c8.215,0.462,16.42,1.365,24.625,2.743v445.667C755.739,449.543,758.299,492.604,690.433,506.881 M659.313,223.402
	c-9.121-2.287-16.539-3.761-22.221-4.445c-5.709-0.681-12.903-1.021-21.558-1.021c-15.055,0-28.149,3.083-39.312,9.215
	c-11.176,6.175-20.409,14.371-27.687,24.638c-7.309,10.254-12.659,22.333-16.07,36.242c-3.436,13.908-5.129,28.389-5.129,43.426
	c0,18.709,2.265,34.542,6.822,47.53c4.551,13,10.823,23.373,18.815,31.125c7.965,7.746,17.42,13.328,28.374,16.746
	c10.951,3.41,22.79,5.131,35.583,5.131c7.74,0,14.788-0.34,21.184-1.021c6.375-0.699,13.446-2.158,21.199-4.438V223.402z"/>
<path fill="#FFFFFF" d="M883.843,356.763c1.794,27.355,11.389,47.184,28.721,59.49c17.323,12.318,40.109,18.478,68.371,18.478
	c15.505,0,31.363-1.483,47.54-4.457c16.18-2.955,31.566-7.174,46.18-12.652c4.998,9.133,9.327,20.077,12.957,32.84
	c3.661,12.763,5.722,26.425,6.175,41.024C1058.234,505.16,1018.101,512,973.437,512c-32.837,0-60.992-4.561-84.471-13.675
	c-23.486-9.114-42.636-21.762-57.444-37.953c-14.83-16.174-25.775-35.448-32.843-57.788c-7.059-22.327-10.583-46.74-10.583-73.184
	c0-25.98,3.63-50.363,10.939-73.165c7.284-22.795,18.131-42.645,32.487-59.505c14.347-16.867,32.116-30.204,53.337-39.997
	c21.199-9.813,45.925-14.714,74.198-14.714c24.623,0,46.503,4.341,65.65,12.99c19.144,8.665,35.446,20.515,48.908,35.57
	c13.446,15.037,23.598,32.938,30.426,53.684c6.85,20.746,10.255,42.973,10.255,66.671c0,8.671-0.329,17.214-1.013,25.659
	c-0.693,8.439-1.49,15.152-2.393,20.169H883.843z M1022.67,289.061c-0.928-21.893-6.968-39.562-18.126-53.012
	c-11.176-13.446-26.796-20.159-46.846-20.159c-22.814,0-40.122,6.369-51.984,19.138c-11.86,12.772-18.922,30.785-21.211,54.033
	H1022.67z"/>
<path fill="#FFFFFF" d="M1726.019,505.166c-22.798,4.554-48.552,6.834-77.272,6.834c-23.257,0-44.575-2.043-63.938-6.153
	c-19.403-4.104-36.026-10.938-49.936-20.515c-13.915-9.57-24.613-21.884-32.134-36.933c-7.54-15.043-11.3-33.509-11.3-55.392
	c0-21.884,4.682-40.234,14.015-55.052c9.351-14.818,21.442-26.684,36.25-35.567c14.83-8.893,31.33-15.268,49.598-19.153
	c18.211-3.857,36.461-5.81,54.711-5.81c13.204,0,27.794,0.688,43.746,2.049v-8.199c0-10.944-1.818-19.837-5.473-26.665
	c-3.654-6.844-8.649-12.207-15.031-16.083c-6.381-3.861-14.258-6.497-23.592-7.865c-9.357-1.359-19.73-2.049-31.119-2.049
	c-24.613,0-50.85,4.789-78.655,14.365c-6.375-11.863-11.17-23.015-14.347-33.524c-3.207-10.464-4.788-23.005-4.788-37.598
	c20.05-6.85,40.097-11.851,60.171-15.058c20.062-3.174,38.754-4.779,56.107-4.779c47.393,0,84.426,11.397,111.105,34.192
	c26.682,22.808,40.019,59.274,40.019,109.423v161.658C1784.156,492.062,1726.019,505.166,1726.019,505.166 M1689.759,341.714
	c-5.473-0.906-11.389-1.709-17.771-2.384c-6.381-0.699-12.091-1.033-17.104-1.033c-22.333,0-40.003,4-52.991,11.959
	c-12.99,7.99-19.49,20.868-19.49,38.653c0,11.856,2.506,20.972,7.527,27.344c5.002,6.396,11.045,11.072,18.107,14.015
	c7.087,2.986,14.581,4.785,22.589,5.491c7.956,0.669,14.924,1.015,20.847,1.015c6.855,0,13.678-0.564,20.515-1.721
	c6.844-1.118,12.763-2.14,17.771-3.064V341.714z"/>
<path fill="#FFFFFF" d="M2142.867,356.763c1.83,27.355,11.379,47.184,28.727,59.49c17.317,12.318,40.109,18.478,68.358,18.478
	c15.518,0,31.362-1.483,47.563-4.457c16.174-2.955,31.566-7.174,46.15-12.652c5.01,9.133,9.345,20.077,12.993,32.84
	c3.654,12.763,5.703,26.425,6.163,41.024C2317.258,505.16,2277.124,512,2232.449,512c-32.813,0-60.968-4.561-84.46-13.675
	c-23.484-9.114-42.632-21.762-57.443-37.953c-14.807-16.174-25.757-35.448-32.831-57.788c-7.065-22.327-10.599-46.74-10.599-73.184
	c0-25.98,3.658-50.363,10.936-73.165c7.297-22.795,18.132-42.645,32.494-59.505c14.364-16.867,32.135-30.204,53.334-39.997
	c21.208-9.813,45.934-14.714,74.204-14.714c24.632,0,46.519,4.341,65.665,12.99c19.138,8.665,35.445,20.515,48.896,35.57
	c13.435,15.037,23.616,32.938,30.426,53.684c6.855,20.746,10.272,42.973,10.272,66.671c0,8.671-0.358,17.214-1.012,25.659
	c-0.705,8.439-1.502,15.152-2.405,20.169H2142.867z M2281.706,289.061c-0.928-21.893-6.975-39.562-18.144-53.012
	c-11.176-13.446-26.767-20.159-46.853-20.159c-22.783,0-40.104,6.369-51.96,19.138c-11.859,12.772-18.922,30.785-21.192,54.033
	H2281.706z"/>
<path fill="#FFFFFF" d="M1143.353,449.543V3.873c8.193-1.377,16.417-2.28,24.644-2.739c8.187-0.45,16.167-0.681,23.908-0.681
	c7.752,0,15.621,0.231,23.604,0.681c7.98,0.459,16.064,1.362,24.264,2.739v144.983c8.211-2.271,16.761-3.772,25.653-4.444
	c8.896-0.678,17.438-1.028,25.665-1.028c27.331,0,52.182,4.907,74.521,14.696c22.345,9.817,41.361,23.154,57.128,40.009
	c15.708,16.879,27.799,36.829,36.242,59.852c8.43,23.032,12.638,47.527,12.638,73.515c0,32.827-4.892,60.64-14.705,83.435
	c-9.795,22.808-23.142,41.371-40.003,55.732c-16.861,14.368-36.37,24.851-58.478,31.466c-22.118,6.604-45.247,9.911-69.423,9.911
	c-31.463,0-58.435-0.522-80.352-5.119C1140.781,492.604,1143.353,449.543,1143.353,449.543 M1239.772,426.528
	c7.765,2.28,14.83,3.745,21.208,4.444c6.394,0.676,13.453,1.016,21.193,1.016c12.781,0,24.613-1.715,35.564-5.131
	c10.954-3.418,20.421-9,28.398-16.752c7.968-7.746,14.24-18.125,18.81-31.119c4.558-12.988,6.807-28.827,6.807-47.53
	c0-15.043-1.69-29.518-5.107-43.429c-3.423-13.909-8.786-25.981-16.071-36.242c-7.302-10.261-16.511-18.46-27.711-24.632
	c-11.157-6.132-24.258-9.221-39.307-9.221c-8.661,0-15.86,0.344-21.542,1.021c-5.704,0.684-13.103,2.167-22.242,4.444V426.528z"/>
<path fill="#FFFFFF" d="M1949.338,46.953v103.269h77.169c1.375,6.843,2.271,12.994,2.739,18.475
	c0.447,5.466,0.672,11.169,0.672,17.089c0,6.396-0.225,12.541-0.672,18.463c-0.468,5.931-1.364,12.55-2.739,19.837h-77.169V362.91
	c0,14.143,1.152,25.543,3.436,34.201c2.274,8.658,5.566,15.506,9.921,20.51c4.319,5.028,9.674,8.445,16.058,10.264
	c6.388,1.83,13.909,2.736,22.576,2.736c6.841,0,13.56-0.566,20.172-1.709c6.594-1.137-1.04-0.377,3.979-1.283
	c3.201,8.658,5.473,17.664,6.85,27.003c1.362,9.352,2.046,17.676,2.046,24.96c0,5.022-0.131,9.248-0.347,12.659
	c-0.236,3.417-0.568,6.737-1.021,9.911c-20.983,5.022-29.188,5.74-51.51,5.74c-41.492,0-73.171-9.681-95.051-29.076
	c-21.904-19.354-32.838-50.941-32.838-94.708V224.086h-50.004c-1.362-7.287-2.266-13.906-2.739-19.837
	c-0.423-5.922-0.679-12.066-0.679-18.463c0-5.919,0.256-11.623,0.679-17.089c0.474-5.481,1.377-11.632,2.739-18.475h50.099V46.953
	V46.94c8.105-1.355,16.231-2.253,24.331-2.709c8.132-0.446,16.027-0.672,23.697-0.672c7.671,0,15.436,0.226,23.337,0.672
	c7.89,0.456,16.174,1.354,24.27,2.709V46.953z"/>
</svg>
